# xmcd CD database file
#
# Track frame offsets:
#	150
#	16262
#	37780
#	61706
#	79553
#	96809
#	113321
#	132607
#	149750
#	173984
#	196079
#	211942
#
# Disc length: 3083 seconds
#
# Revision: 0
# Processed by: cddbd v1.5.1PL0 Copyright (c) Steve Scherf et al.
# Submitted via: CDex 1.51
#
DISCID=950c090c
DTITLE=Keith Urban - Golden Road
DYEAR=2002
DGENRE=Country
TTITLE0=Jeans On
TTITLE1=Raining On Sunday
TTITLE2=Somebody Like You
TTITLE3=Song For Dad
TTITLE4=What About Me
TTITLE5=Whenever I Run
TTITLE6=Who Wouldn't Want To Be Me
TTITLE7=You Look Good In My Shirt
TTITLE8=You Won
TTITLE9=You'll Think Of Me
TTITLE10=You're Not Alone Tonight
TTITLE11=You're Not My God
EXTD=YEAR: 2002
EXTT0=
EXTT1=
EXTT2=
EXTT3=
EXTT4=
EXTT5=
EXTT6=
EXTT7=
EXTT8=
EXTT9=
EXTT10=
EXTT11=
PLAYORDER=
